<?xml version="1.0" standalone="no"?>
<!DOCTYPE svg PUBLIC "-//W3C//DTD SVG 20010904//EN" "http://www.w3.org/TR/2001/REC-SVG-20010904/DTD/svg10.dtd">
<!-- Created using Krita: https://krita.org -->
<svg xmlns="http://www.w3.org/2000/svg" 
    xmlns:xlink="http://www.w3.org/1999/xlink"
    xmlns:krita="http://krita.org/namespaces/svg/krita"
    xmlns:sodipodi="http://sodipodi.sourceforge.net/DTD/sodipodi-0.dtd"
    width="480pt"
    height="405.12pt"
    viewBox="0 0 480 405.12">
<defs>
  <linearGradient id="gradient0" gradientUnits="objectBoundingBox" x1="1" y1="-0.000923727565917243" x2="1" y2="1" spreadMethod="repeat">
   <stop stop-color="#f3e87f" offset="0" stop-opacity="1"/>
   <stop stop-color="#f3a67f" offset="0.416667014360428" stop-opacity="1"/>
   <stop stop-color="#f96c5d" offset="1" stop-opacity="1"/>
  </linearGradient>
  <linearGradient id="gradient1" gradientUnits="objectBoundingBox" x1="1" y1="-0.000923727565917243" x2="1" y2="1" spreadMethod="repeat">
   <stop stop-color="#f3e87f" offset="0" stop-opacity="1"/>
   <stop stop-color="#f3a67f" offset="0.416667014360428" stop-opacity="1"/>
   <stop stop-color="#f96c5d" offset="1" stop-opacity="1"/>
  </linearGradient>
 </defs>
<path id="shape0" transform="matrix(3.05810397553517 0 0 3.05797101449275 33.3693559939225 24.4633481165396)" fill="url(#gradient0)" fill-rule="evenodd" stroke-opacity="0" stroke="#000000" stroke-width="0" stroke-linecap="square" stroke-linejoin="bevel" d="M69.7657 0.190369C65.6403 -0.349993 60.9168 0.260007 55.5952 2.02037C51.8834 3.24824 42.5238 8.43604 36.972 15.0704C31.4203 21.7047 30.1526 28.5313 29.5709 34.8404C28.9892 41.1495 31.6769 51.9404 33.1812 55.0004C34.6855 58.0604 34.0318 60.4773 29.7514 64.4804C27.3393 66.7362 20.7256 68.5604 13.866 66.5204C7.00644 64.4804 4.41905 56.9204 3.0351 58.7804C1.65115 60.6404 2.07885 63.0498 2.31304 64.4804C2.71112 66.912 5.64508 70.2612 7.7285 71.9204C10.5246 74.1471 13.866 76.6004 19.101 76.7804C24.3359 76.9604 23.9749 77.0804 27.9462 76.3604C31.9176 75.6404 33.0574 73.7666 35.1668 73.9004C35.3895 73.9145 35.8023 74.0876 35.8889 74.2604C36.3221 75.1244 36.5942 77.0703 36.2499 78.2204C35.8154 79.6723 34.1712 81.8748 33.1812 82.9004C30.7025 85.468 25.2751 87.4904 21.6282 88.3004C17.449 89.2286 13.4277 86.6741 9.53366 87.7004C5.94707 88.6456 -1.1041 92.2487 0.146854 96.4004C0.871904 98.8066 6.82593 93.3404 9.89469 93.7004C12.9634 94.0604 17.7471 95.5904 21.8989 96.1304C26.0508 96.6704 27.8575 96.6704 35.0766 94.3304C42.2958 91.9904 45.2504 85.8324 47.8029 83.0804C48.7721 82.0355 51.0191 80.062 52.1804 80.3354C53.2192 80.5799 54.2872 83.3222 53.1281 86.2904C52.482 87.945 48.9374 92.678 46.8101 97.4804C45.1863 101.146 44.0873 104.783 44.4333 108.31C44.7793 111.838 50.7973 122.513 55.6854 121.75C60.5737 120.987 52.8023 114.916 54.2112 108.28C55.2107 103.574 59.6772 98.7854 63.1308 92.9135C65.5179 88.8549 67.784 84.5302 69.7657 83.7104C69.7494 81.7333 69.7494 53.8933 69.7657 0.190369Z" sodipodi:nodetypes="cszzzszzsszzssssssszzzsssszzsccc"/><path id="shape01" transform="matrix(-3.05810397553517 0 0 3.05797101449275 458.357044006077 24.3673481165396)" fill="url(#gradient1)" fill-rule="evenodd" stroke-opacity="0" stroke="#000000" stroke-width="0" stroke-linecap="square" stroke-linejoin="bevel" d="M69.6762 0.190369C65.5561 -0.349993 60.8387 0.260007 55.5239 2.02037C51.8169 3.24824 42.4692 8.43604 36.9246 15.0704C31.3801 21.7047 30.114 28.5313 29.5329 34.8404C28.952 41.1495 31.6363 51.9404 33.1386 55.0004C34.641 58.0604 33.9882 60.4773 29.7132 64.4804C27.3042 66.7362 20.699 68.5604 13.8482 66.5204C6.99746 64.4804 4.41339 56.9204 3.03121 58.7804C1.64903 60.6404 2.07618 63.0498 2.31007 64.4804C2.70765 66.912 5.63784 70.2612 7.71859 71.9204C10.5111 74.1471 13.8482 76.6004 19.0765 76.7804C24.3047 76.9604 23.9441 77.0804 27.9104 76.3604C31.8766 75.6404 33.015 73.7666 35.1217 73.9004C35.3441 73.9145 35.7563 74.0876 35.8429 74.2604C36.2756 75.1244 36.5473 77.0703 36.2035 78.2204C35.7695 79.6723 34.1274 81.8748 33.1386 82.9004C30.6631 85.468 25.2427 87.4904 21.6004 88.3004C17.4267 89.2286 13.4104 86.6741 9.52143 87.7004C5.93944 88.6456 -1.10269 92.2487 0.146666 96.4004C0.870786 98.8066 6.81717 93.3404 9.882 93.7004C12.9468 94.0604 17.7243 95.5904 21.8709 96.1304C26.0174 96.6704 27.8217 96.6704 35.0316 94.3304C42.2416 91.9904 45.1924 85.8324 47.7416 83.0804C48.7096 82.0355 50.9537 80.062 52.1135 80.3354C53.151 80.5799 54.2176 83.3222 53.06 86.2904C52.4147 87.945 48.8746 92.678 46.7501 97.4804C45.1283 101.146 44.0308 104.783 44.3763 108.31C44.7219 111.838 50.7321 122.513 55.614 121.75C60.496 120.987 52.7346 114.916 54.1417 108.28C55.1399 103.574 59.6007 98.7854 63.0499 92.9135C65.4339 88.8549 67.6971 84.5302 69.6762 83.7104C69.66 81.7333 69.66 53.8933 69.6762 0.190369Z" sodipodi:nodetypes="cszzzszzsszzssssssszzzsssszzsccc"/><path id="shape02" transform="matrix(3.05810397553517 0 0 3.05797101449275 36.6068428528896 269.172975204633)" fill="none" stroke="#ba2a1a" stroke-width="1.092" stroke-linecap="square" stroke-linejoin="bevel" d="M50.5566 0C46.635 1.16294 41.501 11.0154 36.6537 13.5152C32.6538 15.578 26.3509 16.7277 21.8268 16.5973C18.2748 16.4949 13.073 13.22 9.59055 13.3593C7.74945 13.4329 4.5526 14.5293 0 16.6485" sodipodi:nodetypes="csssc"/><path id="shape1" transform="matrix(3.05810397553517 0 0 3.05797101449275 38.9465957678674 204.027801946997)" fill="none" stroke="#ba2a1a" stroke-width="1.092" stroke-linecap="square" stroke-linejoin="bevel" d="M1.24446 0C0.224459 0.804 -0.135541 1.98 0.0444595 3.48C0.224459 4.98 0.346429 6.20074 0.824459 7.2C1.78971 9.21772 3.95353 11.682 5.68446 13.14C7.6902 14.8295 10.9304 16.8131 13.4245 17.52C16.5732 18.4125 21.3668 18.4189 24.6445 17.94C26.5498 17.6616 28.9868 16.5145 30.8245 15.84C31.5146 15.5867 32.7805 15.21 33.4645 14.94" sodipodi:nodetypes="czsssssc"/><path id="shape2" transform="matrix(3.05810397553517 0 0 3.05797101449275 197.930345740899 281.822604639364)" fill="none" stroke="#ba2a1a" stroke-width="1.224" stroke-linecap="square" stroke-linejoin="bevel" d="M15.6768 0C14.9208 0.504 13.7456 1.02557 13.1568 1.68C12.6037 2.2947 9.02748 7.42432 8.59678 8.16C6.79775 11.2329 6.24874 11.8534 4.36678 14.88C2.95215 17.155 1.63732 19.3574 0.796776 21.84C0.216869 23.5528 -0.172688 26.1896 0.076776 27.96C0.40338 30.2779 2.94526 33.0934 3.19678 35.4C3.2386 35.7836 3.02878 36.324 2.95678 36.72" sodipodi:nodetypes="cssssssc"/><path id="shape011" transform="matrix(-3.05810397553517 0 0 3.05797101449275 454.871926790905 269.054153556677)" fill="none" stroke="#ba2a1a" stroke-width="1.092" stroke-linecap="square" stroke-linejoin="bevel" d="M50.5566 0C46.635 1.16294 41.501 11.0154 36.6537 13.5152C32.6538 15.578 26.3509 16.7277 21.8268 16.5973C18.2748 16.4949 13.073 13.22 9.59055 13.3593C7.74945 13.4329 4.5526 14.5293 0 16.6485" sodipodi:nodetypes="csssc"/><path id="shape11" transform="matrix(-3.05810397553517 0 0 3.05797101449275 452.532173972907 203.908980299041)" fill="none" stroke="#ba2a1a" stroke-width="1.092" stroke-linecap="square" stroke-linejoin="bevel" d="M1.24446 0C0.224459 0.804 -0.135541 1.98 0.0444595 3.48C0.224459 4.98 0.346429 6.20074 0.824459 7.2C1.78971 9.21772 3.95353 11.682 5.68446 13.14C7.6902 14.8295 10.9304 16.8131 13.4245 17.52C16.5732 18.4125 21.3668 18.4189 24.6445 17.94C26.5498 17.6616 28.9868 16.5145 30.8245 15.84C31.5146 15.5867 32.7805 15.21 33.4645 14.94" sodipodi:nodetypes="czsssssc"/><path id="shape21" transform="matrix(-3.05810397553517 0 0 3.05797101449275 293.548423921086 281.703782991407)" fill="none" stroke="#ba2a1a" stroke-width="1.224" stroke-linecap="square" stroke-linejoin="bevel" d="M15.6768 0C14.9208 0.504 13.7456 1.02557 13.1568 1.68C12.6037 2.2947 9.02748 7.42432 8.59678 8.16C6.79775 11.2329 6.24874 11.8534 4.36678 14.88C2.95215 17.155 1.63732 19.3574 0.796776 21.84C0.216869 23.5528 -0.172688 26.1896 0.076776 27.96C0.40338 30.2779 2.94526 33.0934 3.19678 35.4C3.2386 35.7836 3.02878 36.324 2.95678 36.72" sodipodi:nodetypes="cssssssc"/><g id="group0" transform="matrix(3.05810397553517 0 0 3.05797101449275 158.532110091743 164.75981083992)" fill="none">
  <circle id="shape03" transform="matrix(0.637499941762675 0 0 0.637499941762677 2.8421709430404e-14 0)" r="12" cx="12" cy="12" fill="#234277" fill-rule="evenodd" stroke-opacity="0" stroke="#000000" stroke-width="0" stroke-linecap="square" stroke-linejoin="bevel"/>
  <ellipse id="shape12" transform="matrix(0.637499941762675 0 0 0.637499941762677 2.0699998730538 2.24999988207324)" rx="4.56470682196607" ry="4.56470575303018" cx="4.56470682196607" cy="4.56470575303018" fill="#ffffff" fill-rule="evenodd" stroke-opacity="0" stroke="#000000" stroke-width="0" stroke-linecap="square" stroke-linejoin="bevel"/>
  <circle id="shape012" transform="matrix(0.637499941762675 0 0 0.637499941762677 41.9399999109685 0.119999995284161)" r="12" cx="12" cy="12" fill="#234277" fill-rule="evenodd" stroke-opacity="0" stroke="#000000" stroke-width="0" stroke-linecap="square" stroke-linejoin="bevel"/>
  <ellipse id="shape111" transform="matrix(0.637499941762675 0 0 0.637499941762677 44.0099997840222 2.36999987735737)" rx="4.56470682196607" ry="4.56470575303018" cx="4.56470682196607" cy="4.56470575303018" fill="#ffffff" fill-rule="evenodd" stroke-opacity="0" stroke="#000000" stroke-width="0" stroke-linecap="square" stroke-linejoin="bevel"/>
 </g><path id="shape04" transform="matrix(2.76957673391951 0 0 2.75054630711406 207.157826880188 222.434046888773)" fill="#234277" fill-rule="evenodd" stroke="#234277" stroke-width="0.6624" stroke-linecap="square" stroke-linejoin="bevel" d="M13.9788 3.17772C14.001 2.59792 13.9992 1.58022 13.9804 1.2384C13.9763 1.16459 8.69128 2.75142 6.96338 2.4925C6.42412 2.41169 4.79687 1.77141 2.08165 0.571669C1.3844 0.091776 0.91065 -0.0859788 0.660402 0.0384041C0.379664 0.177942 0.0130041 0.744951 0.000402234 1.0584C-0.0179759 1.51553 0.597681 2.15869 0.972904 2.48499C1.70461 3.12131 5.28519 4.2985 6.27416 4.60348C8.71248 4.87921 10.7356 3.98832 13.9788 3.17772Z" sodipodi:nodetypes="csscssscc"/><path id="shape013" transform="matrix(-2.76957673391951 0 0 2.75054630711406 284.688044682095 222.534076870781)" fill="#234277" fill-rule="evenodd" stroke="#234277" stroke-width="0.6624" stroke-linecap="square" stroke-linejoin="bevel" d="M13.9788 3.17772C14.001 2.59792 13.9992 1.58022 13.9804 1.2384C13.9763 1.16459 8.69128 2.75142 6.96338 2.4925C6.42412 2.41169 4.79687 1.77141 2.08165 0.571669C1.3844 0.091776 0.91065 -0.0859788 0.660402 0.0384041C0.379664 0.177942 0.0130041 0.744951 0.000402234 1.0584C-0.0179759 1.51553 0.597681 2.15869 0.972904 2.48499C1.70461 3.12131 5.28519 4.2985 6.27416 4.60348C8.71248 4.87921 10.7356 3.98832 13.9788 3.17772Z" sodipodi:nodetypes="csscssscc"/><ellipse id="shape05" transform="matrix(3.05809877576114 -0.00563915834064906 0.00563940353210698 3.05796581494481 286.671944801415 47.628845537806)" rx="4.67999999999999" ry="4.56" cx="4.67999999999999" cy="4.56" fill="#f4edcf" fill-rule="evenodd" stroke-opacity="0" stroke="#000000" stroke-width="0" stroke-linecap="square" stroke-linejoin="bevel"/><ellipse id="shape13" transform="matrix(3.05809877576114 -0.00563915834064906 0.00563940353210698 3.05796581494481 320.501028128203 84.2621790090629)" rx="2.28" ry="2.16" cx="2.28" cy="2.16" fill="#f4edcf" fill-rule="evenodd" stroke-opacity="0" stroke="#000000" stroke-width="0" stroke-linecap="square" stroke-linejoin="bevel"/><ellipse id="shape22" transform="matrix(3.05809877576114 -0.00563915834064906 0.00563940353210698 3.05796581494481 291.155460992526 90.9215210894139)" rx="1.8" ry="1.68" cx="1.8" cy="1.68" fill="#f4edcf" fill-rule="evenodd" stroke-opacity="0" stroke="#000000" stroke-width="0" stroke-linecap="square" stroke-linejoin="bevel"/>
</svg>
